Coordinates
version=1
nRows=49
nColumns=12
inDegrees=yes

Units are S.I. units (second, meters, Newtons, ...)
Angles are in degrees

endheader
time	SC_y	SC_z	SC_x	AC_y	AC_z	AC_x	GH_y	GH_z	GH_yy	EL_x	PS_y
       0.0              -20.63           24.5          15.66          66.31         -8.859         -9.743          164.0          55.23          177.7          40.52          54.03
  0.002827              -20.63          24.49          15.67          66.31         -8.858         -9.743          164.0          55.22          177.7          40.53          54.03
  0.005654              -20.63          24.49          15.67           66.3         -8.858         -9.744          164.0          55.21          177.6          40.54          54.03
  0.008481              -20.64          24.49          15.68           66.3         -8.857         -9.744          163.9           55.2          177.6          40.55          54.02
   0.01131              -20.64          24.49          15.69          66.29         -8.856         -9.744          163.8          55.19          177.5          40.56          54.02
   0.01413              -20.65          24.48          15.69          66.29         -8.854         -9.745          163.8          55.18          177.5          40.57          54.01
   0.01696              -20.65          24.48           15.7          66.28         -8.853         -9.745          163.7          55.16          177.4          40.58           54.0
   0.01979              -20.66          24.48          15.71          66.28         -8.852         -9.746          163.7          55.15          177.4           40.6           54.0
   0.02262              -20.66          24.47          15.72          66.27         -8.851         -9.746          163.6          55.14          177.3          40.61          53.99
   0.02544              -20.67          24.47          15.73          66.26         -8.849         -9.747          163.5          55.12          177.2          40.63          53.98
   0.02827              -20.68          24.47          15.74          66.26         -8.848         -9.747          163.4          55.11          177.2          40.64          53.98
    0.0311              -20.68          24.46          15.75          66.25         -8.846         -9.748          163.4          55.09          177.1          40.66          53.97
   0.03392              -20.69          24.46          15.76          66.24         -8.844         -9.749          163.3          55.07          177.0          40.68          53.96
   0.03675               -20.7          24.45          15.78          66.23         -8.842         -9.749          163.2          55.05          176.9           40.7          53.95
   0.03958              -20.71          24.45          15.79          66.22          -8.84          -9.75          163.0          55.03          176.8          40.72          53.94
    0.0424              -20.72          24.44          15.81          66.21         -8.838         -9.751          162.9          55.01          176.7          40.75          53.93
   0.04523              -20.73          24.43          15.82           66.2         -8.836         -9.752          162.8          54.98          176.6          40.77          53.92
   0.04806              -20.74          24.43          15.84          66.19         -8.833         -9.753          162.7          54.96          176.5           40.8           53.9
   0.05088              -20.75          24.42          15.86          66.18          -8.83         -9.754          162.5          54.93          176.3          40.83          53.89
   0.05371              -20.76          24.41          15.88          66.16         -8.827         -9.755          162.3          54.89          176.2          40.87          53.87
   0.05654              -20.78           24.4          15.91          66.15         -8.823         -9.757          162.2          54.86          176.0           40.9          53.85
   0.05936               -20.8          24.39          15.93          66.13         -8.819         -9.758          162.0          54.82          175.8          40.94          53.83
   0.06219              -20.81          24.38          15.96          66.11         -8.815          -9.76          161.7          54.78          175.6          40.99          53.81
   0.06502              -20.83          24.37           16.0          66.09          -8.81         -9.762          161.5          54.73          175.4          41.04          53.79
   0.06785              -20.86          24.35          16.03          66.06         -8.805         -9.764          161.2          54.67          175.2          41.09          53.76
   0.07067              -20.88          24.34          16.07          66.04         -8.799         -9.766          160.9          54.61          174.9          41.16          53.73
    0.0735              -20.91          24.32          16.12          66.01         -8.793         -9.768          160.6          54.55          174.6          41.23           53.7
   0.07633              -20.94           24.3          16.17          65.97         -8.785         -9.771          160.2          54.47          174.3          41.31          53.66
   0.07915              -20.98          24.28          16.23          65.94         -8.777         -9.774          159.7          54.39          173.9          41.39          53.62
   0.08198              -21.02          24.25          16.29          65.89         -8.767         -9.778          159.2          54.29          173.4          41.49          53.58
   0.08481              -21.06          24.22          16.37          65.84         -8.756         -9.782          158.7          54.18          172.9          41.61          53.52
   0.08763              -21.11          24.19          16.45          65.79         -8.744         -9.787          158.0          54.05          172.3          41.74          53.46
   0.09046              -21.17          24.15          16.55          65.72         -8.729         -9.792          157.3          53.91          171.7          41.89          53.39
   0.09329              -21.24          24.11          16.67          65.65         -8.713         -9.799          156.4          53.74          170.9          42.07           53.3
   0.09611              -21.33          24.06           16.8          65.56         -8.693         -9.806          155.4          53.54          170.0          42.28          53.21
   0.09894              -21.42           24.0          16.96          65.45          -8.67         -9.815          154.2          53.31          168.9          42.52          53.09
    0.1018              -21.54          23.92          17.15          65.33         -8.643         -9.826          152.7          53.03          167.7          42.81          52.95
    0.1046              -21.68          23.84          17.37          65.18          -8.61         -9.838          151.0          52.69          166.1          43.16          52.79
    0.1074              -21.85          23.73          17.65           65.0          -8.57         -9.853          148.9          52.29          164.3          43.58          52.59
    0.1102              -22.05           23.6          17.98          64.78         -8.521         -9.872          146.4           51.8          162.0          44.09          52.35
    0.1131               -22.3          23.44          18.39          64.51         -8.461         -9.895          143.3          51.19          159.3          44.73          52.05
    0.1159              -22.62          23.24           18.9          64.17         -8.387         -9.923          139.4          50.43          155.8          45.52          51.68
    0.1187              -23.02          22.99          19.55          63.75         -8.293         -9.959          134.4          49.48          151.4          46.51          51.21
    0.1216              -23.52          22.68          20.37           63.2         -8.173          -10.0          128.2          48.26          145.9          47.78          50.61
    0.1244              -24.17          22.27          21.43          62.51          -8.02         -10.06          120.2          46.71          138.8           49.4          49.85
    0.1272               -25.0          21.75          22.78          61.62         -7.823         -10.14          109.9          44.72          129.7          51.48          48.87
      0.13              -26.06          21.08           24.5          60.48         -7.572         -10.23          96.81          42.17          118.1          54.13          47.61
    0.1329              -27.39          20.24          26.67          59.06         -7.256         -10.35          80.31          38.97          103.4          57.47          46.04
    0.1357              -29.01          19.22          29.31          57.31         -6.871          -10.5          60.21          35.06           85.6          61.54          44.12
